<svg width="30" height="28" viewBox="0 0 30 28" fill="none" xmlns="http://www.w3.org/2000/svg">
<path d="M23.25 18.8227C24.4435 18.8227 25.5881 19.2968 26.432 20.1408C27.2759 20.9847 27.75 22.1293 27.75 23.3227C27.75 24.5162 27.2759 25.6608 26.432 26.5047C25.5881 27.3486 24.4435 27.8227 23.25 27.8227C22.3185 27.8254 21.4093 27.538 20.6486 27.0004C19.8879 26.4628 19.3134 25.7017 19.005 24.8227H17.25V21.8227H19.005C19.62 20.0677 21.285 18.8227 23.25 18.8227ZM23.25 21.8227C22.8522 21.8227 22.4707 21.9808 22.1894 22.2621C21.9081 22.5434 21.75 22.9249 21.75 23.3227C21.75 23.7206 21.9081 24.1021 22.1894 24.3834C22.4707 24.6647 22.8522 24.8227 23.25 24.8227C23.6478 24.8227 24.0294 24.6647 24.3107 24.3834C24.592 24.1021 24.75 23.7206 24.75 23.3227C24.75 22.9249 24.592 22.5434 24.3107 22.2621C24.0294 21.9808 23.6478 21.8227 23.25 21.8227ZM23.25 8.32273C23.8189 8.32273 24.3645 8.09674 24.7668 7.69448C25.169 7.29221 25.395 6.74662 25.395 6.17773C25.395 5.60884 25.169 5.06326 24.7668 4.66099C24.3645 4.25873 23.8189 4.03273 23.25 4.03273C22.6811 4.03273 22.1355 4.25873 21.7333 4.66099C21.331 5.06326 21.105 5.60884 21.105 6.17773C21.105 6.74662 21.331 7.29221 21.7333 7.69448C22.1355 8.09674 22.6811 8.32273 23.25 8.32273ZM23.25 0.177734C24.8413 0.177734 26.3674 0.809875 27.4927 1.93509C28.6179 3.06031 29.25 4.58644 29.25 6.17773C29.25 10.6627 23.25 17.3227 23.25 17.3227C23.25 17.3227 17.25 10.6627 17.25 6.17773C17.25 4.58644 17.8822 3.06031 19.0074 1.93509C20.1326 0.809875 21.6587 0.177734 23.25 0.177734ZM9.49502 21.8227H11.25V24.8227H9.49502C9.1866 25.7017 8.61216 26.4628 7.85145 27.0004C7.09074 27.538 6.18152 27.8254 5.25002 27.8227C4.05654 27.8227 2.91195 27.3486 2.06804 26.5047C1.22412 25.6608 0.750019 24.5162 0.750019 23.3227C0.750019 21.3577 1.99502 19.6927 3.75002 19.0777V17.3227H6.75002V19.0777C8.02502 19.5277 9.04502 20.5477 9.49502 21.8227ZM5.25002 21.8227C4.85219 21.8227 4.47066 21.9808 4.18936 22.2621C3.90805 22.5434 3.75002 22.9249 3.75002 23.3227C3.75002 23.7206 3.90805 24.1021 4.18936 24.3834C4.47066 24.6647 4.85219 24.8227 5.25002 24.8227C5.64784 24.8227 6.02937 24.6647 6.31068 24.3834C6.59198 24.1021 6.75002 23.7206 6.75002 23.3227C6.75002 22.9249 6.59198 22.5434 6.31068 22.2621C6.02937 21.9808 5.64784 21.8227 5.25002 21.8227ZM5.25002 0.822734C6.44349 0.822734 7.58809 1.29684 8.432 2.14075C9.27591 2.98467 9.75002 4.12926 9.75002 5.32273C9.75002 7.28773 8.50502 8.95273 6.75002 9.56773V11.3227H3.75002V9.56773C2.87106 9.25932 2.10994 8.68487 1.57233 7.92416C1.03473 7.16346 0.747324 6.25423 0.750019 5.32273C0.750019 4.12926 1.22412 2.98467 2.06804 2.14075C2.91195 1.29684 4.05654 0.822734 5.25002 0.822734ZM5.25002 3.82273C4.85219 3.82273 4.47066 3.98077 4.18936 4.26207C3.90805 4.54338 3.75002 4.92491 3.75002 5.32273C3.75002 5.72056 3.90805 6.10209 4.18936 6.38339C4.47066 6.6647 4.85219 6.82273 5.25002 6.82273C5.64784 6.82273 6.02937 6.6647 6.31068 6.38339C6.59198 6.10209 6.75002 5.72056 6.75002 5.32273C6.75002 4.92491 6.59198 4.54338 6.31068 4.26207C6.02937 3.98077 5.64784 3.82273 5.25002 3.82273ZM12.75 24.8227V21.8227H15.75V24.8227H12.75ZM6.75002 15.8227H3.75002V12.8227H6.75002V15.8227Z" fill="white"/>
</svg>
