<svg width="27" height="30" viewBox="0 0 27 30" fill="none" xmlns="http://www.w3.org/2000/svg">
<g filter="url(#filter0_d_619_917)">
<path fill-rule="evenodd" clip-rule="evenodd" d="M20.748 9.58222C20.7493 9.63801 20.75 9.69394 20.75 9.75V15.75L22.75 17.75V18.75H4.75V17.75L6.75 15.75V9.75C6.75 6.65 8.75 3.95 11.75 3.05V2.75C11.75 1.65 12.65 0.75 13.75 0.75C14.2942 0.75 14.7894 0.970252 15.1509 1.32601C14.1105 2.14887 13.405 3.37673 13.2726 4.77158C10.7039 5.00535 8.75 7.11123 8.75 9.75V16.75H18.75V10.2253C19.4723 10.1536 20.1494 9.92818 20.748 9.58222ZM13.75 21.75C14.85 21.75 15.75 20.85 15.75 19.75H11.75C11.75 20.85 12.65 21.75 13.75 21.75Z" fill="#7D7D7D"/>
</g>
<defs>
<filter id="filter0_d_619_917" x="0.75" y="0.75" width="26" height="29" filterUnits="userSpaceOnUse" color-interpolation-filters="sRGB">
<feFlood flood-opacity="0" result="BackgroundImageFix"/>
<feColorMatrix in="SourceAlpha" type="matrix" values="0 0 0 0 0 0 0 0 0 0 0 0 0 0 0 0 0 0 127 0" result="hardAlpha"/>
<feOffset dy="4"/>
<feGaussianBlur stdDeviation="2"/>
<feComposite in2="hardAlpha" operator="out"/>
<feColorMatrix type="matrix" values="0 0 0 0 0 0 0 0 0 0 0 0 0 0 0 0 0 0 0.25 0"/>
<feBlend mode="normal" in2="BackgroundImageFix" result="effect1_dropShadow_619_917"/>
<feBlend mode="normal" in="SourceGraphic" in2="effect1_dropShadow_619_917" result="shape"/>
</filter>
</defs>
</svg>
