<svg width="28" height="30" viewBox="0 0 28 30" fill="none" xmlns="http://www.w3.org/2000/svg">
<path d="M25.2 13.7864V5.45455C25.2 4.73123 24.905 4.03754 24.3799 3.52607C23.8548 3.01461 23.1426 2.72727 22.4 2.72727H16.548C15.96 1.14545 14.42 0 12.6 0C10.78 0 9.24 1.14545 8.652 2.72727H2.8C1.26 2.72727 0 3.95455 0 5.45455V24.5455C0 25.2688 0.294999 25.9625 0.820101 26.4739C1.3452 26.9854 2.05739 27.2727 2.8 27.2727H11.354C13.118 28.9636 15.526 30 18.2 30C23.618 30 28 25.7318 28 20.4545C28 17.85 26.936 15.5045 25.2 13.7864ZM12.6 2.72727C13.37 2.72727 14 3.34091 14 4.09091C14 4.84091 13.37 5.45455 12.6 5.45455C11.83 5.45455 11.2 4.84091 11.2 4.09091C11.2 3.34091 11.83 2.72727 12.6 2.72727ZM2.8 24.5455V5.45455H5.6V8.18182H19.6V5.45455H22.4V11.8364C21.126 11.25 19.712 10.9091 18.2 10.9091H5.6V13.6364H11.34C10.5 14.4136 9.856 15.3409 9.352 16.3636H5.6V19.0909H8.512C8.442 19.5409 8.4 19.9909 8.4 20.4545C8.4 21.9273 8.75 23.3045 9.352 24.5455H2.8ZM18.2 27.2727C14.336 27.2727 11.2 24.2182 11.2 20.4545C11.2 16.6909 14.336 13.6364 18.2 13.6364C22.064 13.6364 25.2 16.6909 25.2 20.4545C25.2 24.2182 22.064 27.2727 18.2 27.2727ZM18.9 20.7955L22.904 23.1L21.854 24.7636L16.8 21.8182V15H18.9V20.7955Z" fill="white"/>
</svg>
