<svg width="18" height="18" viewBox="0 0 18 18" fill="none" xmlns="http://www.w3.org/2000/svg">
<path d="M6.75 0.25C8.47391 0.25 10.1272 0.934819 11.3462 2.15381C12.5652 3.37279 13.25 5.02609 13.25 6.75C13.25 8.36 12.66 9.84 11.69 10.98L11.96 11.25H12.75L17.75 16.25L16.25 17.75L11.25 12.75V11.96L10.98 11.69C9.80037 12.6965 8.30065 13.2496 6.75 13.25C5.02609 13.25 3.37279 12.5652 2.15381 11.3462C0.934819 10.1272 0.25 8.47391 0.25 6.75C0.25 5.02609 0.934819 3.37279 2.15381 2.15381C3.37279 0.934819 5.02609 0.25 6.75 0.25ZM6.75 2.25C4.25 2.25 2.25 4.25 2.25 6.75C2.25 9.25 4.25 11.25 6.75 11.25C9.25 11.25 11.25 9.25 11.25 6.75C11.25 4.25 9.25 2.25 6.75 2.25Z" fill="#7D7D7D"/>
</svg>
