<svg width="24" height="30" viewBox="0 0 24 30" fill="none" xmlns="http://www.w3.org/2000/svg">
<path d="M12 0.75C6 0.75 0 1.5 0 6.75V21C0 22.3924 0.553124 23.7277 1.53769 24.7123C2.52226 25.6969 3.85761 26.25 5.25 26.25L3 28.5V29.25H6.345L9.345 26.25H15L18 29.25H21V28.5L18.75 26.25C20.1424 26.25 21.4777 25.6969 22.4623 24.7123C23.4469 23.7277 24 22.3924 24 21V6.75C24 1.5 18.63 0.75 12 0.75ZM5.25 23.25C4.65326 23.25 4.08097 23.0129 3.65901 22.591C3.23705 22.169 3 21.5967 3 21C3 20.4033 3.23705 19.831 3.65901 19.409C4.08097 18.9871 4.65326 18.75 5.25 18.75C5.84674 18.75 6.41903 18.9871 6.84099 19.409C7.26295 19.831 7.5 20.4033 7.5 21C7.5 21.5967 7.26295 22.169 6.84099 22.591C6.41903 23.0129 5.84674 23.25 5.25 23.25ZM10.5 12.75H3V6.75H10.5V12.75ZM13.5 12.75V6.75H21V12.75H13.5ZM18.75 23.25C18.1533 23.25 17.581 23.0129 17.159 22.591C16.7371 22.169 16.5 21.5967 16.5 21C16.5 20.4033 16.7371 19.831 17.159 19.409C17.581 18.9871 18.1533 18.75 18.75 18.75C19.3467 18.75 19.919 18.9871 20.341 19.409C20.7629 19.831 21 20.4033 21 21C21 21.5967 20.7629 22.169 20.341 22.591C19.919 23.0129 19.3467 23.25 18.75 23.25Z" fill="white"/>
</svg>
